<svg xmlns="http://www.w3.org/2000/svg" xmlns:oryx="http://oryx-editor.org" id="_87B809B9-1C45-4131-94AC-414202658911" width="656" height="106" xmlns:xlink="http://www.w3.org/1999/xlink" xmlns:svg="http://www.w3.org/2000/svg"><defs><marker id="_D666FEFE-2FCC-45D0-83F8-C4F55F6C0C68start" refX="1" refY="5" markerUnits="userSpaceOnUse" markerWidth="17" markerHeight="11" orient="auto" fill="#000000" stroke="#000000"> 	  		<path id="_D666FEFE-2FCC-45D0-83F8-C4F55F6C0C68conditional" d="M 0 5 L 8 0 L 16 5 L 8 10 L 0 5" fill="white" stroke="#000000" stroke-width="1" display="none"/> 			<path id="_D666FEFE-2FCC-45D0-83F8-C4F55F6C0C68default" d="M 5 0 L 11 10" fill="white" stroke="#000000" stroke-width="1" display="none"/> 	  	</marker><marker id="_D666FEFE-2FCC-45D0-83F8-C4F55F6C0C68end" refX="15" refY="6" markerUnits="userSpaceOnUse" markerWidth="15" markerHeight="12" orient="auto" fill="#000000" stroke="#000000"> 	  		<path id="_D666FEFE-2FCC-45D0-83F8-C4F55F6C0C68frame2" d="M 0 1 L 15 6 L 0 11z" fill="#000000" stroke="#000000" stroke-linejoin="round" stroke-width="2"/> 	  	</marker><marker id="_889F3FC4-4F83-4B5F-8B01-3AC633F50B76start" refX="1" refY="5" markerUnits="userSpaceOnUse" markerWidth="17" markerHeight="11" orient="auto" fill="#000000" stroke="#000000"> 	  		<path id="_889F3FC4-4F83-4B5F-8B01-3AC633F50B76conditional" d="M 0 5 L 8 0 L 16 5 L 8 10 L 0 5" fill="white" stroke="#000000" stroke-width="1" display="none"/> 			<path id="_889F3FC4-4F83-4B5F-8B01-3AC633F50B76default" d="M 5 0 L 11 10" fill="white" stroke="#000000" stroke-width="1" display="none"/> 	  	</marker><marker id="_889F3FC4-4F83-4B5F-8B01-3AC633F50B76end" refX="15" refY="6" markerUnits="userSpaceOnUse" markerWidth="15" markerHeight="12" orient="auto" fill="#000000" stroke="#000000"> 	  		<path id="_889F3FC4-4F83-4B5F-8B01-3AC633F50B76frame2" d="M 0 1 L 15 6 L 0 11z" fill="#000000" stroke="#000000" stroke-linejoin="round" stroke-width="2"/> 	  	</marker><marker id="_08C653B8-C018-4594-A5C2-8F0D91371FD5start" refX="1" refY="5" markerUnits="userSpaceOnUse" markerWidth="17" markerHeight="11" orient="auto" fill="#000000" stroke="#000000"> 	  		<path id="_08C653B8-C018-4594-A5C2-8F0D91371FD5conditional" d="M 0 5 L 8 0 L 16 5 L 8 10 L 0 5" fill="white" stroke="#000000" stroke-width="1" display="none"/> 			<path id="_08C653B8-C018-4594-A5C2-8F0D91371FD5default" d="M 5 0 L 11 10" fill="white" stroke="#000000" stroke-width="1" display="none"/> 	  	</marker><marker id="_08C653B8-C018-4594-A5C2-8F0D91371FD5end" refX="15" refY="6" markerUnits="userSpaceOnUse" markerWidth="15" markerHeight="12" orient="auto" fill="#000000" stroke="#000000"> 	  		<path id="_08C653B8-C018-4594-A5C2-8F0D91371FD5frame2" d="M 0 1 L 15 6 L 0 11z" fill="#000000" stroke="#000000" stroke-linejoin="round" stroke-width="2"/> 	  	</marker><marker id="_2B6E139C-BEA0-42DC-B403-92288FD2968Astart" refX="1" refY="5" markerUnits="userSpaceOnUse" markerWidth="17" markerHeight="11" orient="auto" fill="#000000" stroke="#000000"> 	  		<path id="_2B6E139C-BEA0-42DC-B403-92288FD2968Aconditional" d="M 0 5 L 8 0 L 16 5 L 8 10 L 0 5" fill="white" stroke="#000000" stroke-width="1" display="none"/> 			<path id="_2B6E139C-BEA0-42DC-B403-92288FD2968Adefault" d="M 5 0 L 11 10" fill="white" stroke="#000000" stroke-width="1" display="none"/> 	  	</marker><marker id="_2B6E139C-BEA0-42DC-B403-92288FD2968Aend" refX="15" refY="6" markerUnits="userSpaceOnUse" markerWidth="15" markerHeight="12" orient="auto" fill="#000000" stroke="#000000"> 	  		<path id="_2B6E139C-BEA0-42DC-B403-92288FD2968Aframe2" d="M 0 1 L 15 6 L 0 11z" fill="#000000" stroke="#000000" stroke-linejoin="round" stroke-width="2"/> 	  	</marker></defs><g stroke="none" font-family="Verdana, sans-serif" font-size-adjust="none" font-style="normal" font-variant="normal" font-weight="normal" line-heigth="normal" font-size="12"><g class="stencils" transform="translate(15, 16)"><g class="me"/><g class="children"><g id="_61029EC8-2846-4EE8-B60E-4F2DCF7FA241" bpmn2nodeid="_6E0DDA00-6BF5-4FEA-9AE8-7F7456A63961"><g class="stencils" transform="translate(16, 16)"><g class="me"><g pointer-events="fill" id="_61029EC8-2846-4EE8-B60E-4F2DCF7FA241">        <defs id="_61029EC8-2846-4EE8-B60E-4F2DCF7FA241__61029EC8-2846-4EE8-B60E-4F2DCF7FA241_5"> 		<radialGradient id="_61029EC8-2846-4EE8-B60E-4F2DCF7FA241background" cx="10%" cy="10%" r="100%" fx="10%" fy="10%"> 			<stop offset="0%" stop-color="#ffffff" stop-opacity="1" id="_61029EC8-2846-4EE8-B60E-4F2DCF7FA241__61029EC8-2846-4EE8-B60E-4F2DCF7FA241_6"/> 			<stop id="_61029EC8-2846-4EE8-B60E-4F2DCF7FA241fill_el" offset="100%" stop-color="#9acd32" stop-opacity="1"/> 		</radialGradient> 	</defs> 	     <circle id="_61029EC8-2846-4EE8-B60E-4F2DCF7FA241bg_frame" cx="15" cy="15" r="15" stroke="#000000" fill="url(#_61029EC8-2846-4EE8-B60E-4F2DCF7FA241background) white" stroke-width="1" style="stroke-dasharray: 5.5, 3"/>      <circle id="_61029EC8-2846-4EE8-B60E-4F2DCF7FA241frame" cx="15" cy="15" r="15" stroke="#000000" fill="none" stroke-width="1" display="inherit"/>  	<text font-size="11" id="_61029EC8-2846-4EE8-B60E-4F2DCF7FA241text_name" x="15" y="32" oryx:align="top center" stroke="black" stroke-width="0pt" letter-spacing="-0.01px" fill="#000000" text-anchor="middle" transform="rotate(0 15 32)" visibility="inherit" oryx:fontSize="11"><tspan x="15" y="32" dy="11">Start</tspan></text>   </g></g><g class="children" style="overflow:hidden"/><g class="edge"/></g><g class="controls"><g class="dockers"/><g class="magnets" transform="translate(16, 16)"><g pointer-events="all" display="none" transform="translate(7, 7)"><circle cx="8" cy="8" r="4" stroke="none" fill="red" fill-opacity="0.3"/></g></g></g></g><g id="_2F90131F-A53A-4508-BA66-71A5A779AE03" bpmn2nodeid="_E243FFE9-63FD-49B3-90B6-04B91D936F48"><g class="stencils" transform="translate(588, 17)"><g class="me"><g pointer-events="fill" id="_2F90131F-A53A-4508-BA66-71A5A779AE03">       <defs id="_2F90131F-A53A-4508-BA66-71A5A779AE03__2F90131F-A53A-4508-BA66-71A5A779AE03_5"> 		<radialGradient id="_2F90131F-A53A-4508-BA66-71A5A779AE03background" cx="10%" cy="10%" r="100%" fx="10%" fy="10%"> 			<stop offset="0%" stop-color="#ffffff" stop-opacity="1" id="_2F90131F-A53A-4508-BA66-71A5A779AE03__2F90131F-A53A-4508-BA66-71A5A779AE03_6"/> 			<stop id="_2F90131F-A53A-4508-BA66-71A5A779AE03fill_el" offset="100%" stop-color="#ff6347" stop-opacity="1"/> 		</radialGradient> 		<radialGradient id="_2F90131F-A53A-4508-BA66-71A5A779AE03borderbackground" cx="10%" cy="10%" r="100%" fx="10%" fy="10%"> 			<stop offset="0%" stop-color="#ffffff" stop-opacity="1" id="_2F90131F-A53A-4508-BA66-71A5A779AE03__2F90131F-A53A-4508-BA66-71A5A779AE03_7"/> 			<stop id="_2F90131F-A53A-4508-BA66-71A5A779AE03fill_border" offset="100%" stop-color="#000000" stop-opacity="1" stroke="#000000"/> 		</radialGradient> 	</defs> 	     <circle id="_2F90131F-A53A-4508-BA66-71A5A779AE03bg_frame" cx="14" cy="14" r="14" stroke="#000000" fill="url(#_2F90131F-A53A-4508-BA66-71A5A779AE03background) white" stroke-width="3"/>          <circle id="_2F90131F-A53A-4508-BA66-71A5A779AE03frame" cx="14" cy="14" r="9" stroke="#000000" fill="url(#_2F90131F-A53A-4508-BA66-71A5A779AE03borderbackground)" stroke-width="1"/> 	<text font-size="11" id="_2F90131F-A53A-4508-BA66-71A5A779AE03text_name" x="14" y="30" oryx:align="top center" stroke="black" stroke-width="0pt" letter-spacing="-0.01px" fill="#000000" text-anchor="middle" transform="rotate(0 14 30)" visibility="inherit" oryx:fontSize="11"><tspan x="14" y="30" dy="11">End</tspan></text>   </g></g><g class="children" style="overflow:hidden"/><g class="edge"/></g><g class="controls"><g class="dockers"/><g class="magnets" transform="translate(588, 17)"><g pointer-events="all" display="none" transform="translate(6, 6)"><circle cx="8" cy="8" r="4" stroke="none" fill="red" fill-opacity="0.3"/></g></g></g></g><g id="_D87CDA3E-A768-4E66-A256-0548F88DD753" bpmn2nodeid="_1B393081-BE75-4C60-B798-E2FFF179AFB9"><g class="stencils" transform="translate(96, 16)"><g class="me"><g pointer-events="fill" oryx:minimumSize="50 40" id="_D87CDA3E-A768-4E66-A256-0548F88DD753">   	<defs id="_D87CDA3E-A768-4E66-A256-0548F88DD753__D87CDA3E-A768-4E66-A256-0548F88DD753_17"> 		<radialGradient id="_D87CDA3E-A768-4E66-A256-0548F88DD753background" cx="10%" cy="10%" r="100%" fx="10%" fy="10%"> 			<stop offset="0%" stop-color="#ffffff" stop-opacity="1" id="_D87CDA3E-A768-4E66-A256-0548F88DD753__D87CDA3E-A768-4E66-A256-0548F88DD753_18"/> 			<stop id="_D87CDA3E-A768-4E66-A256-0548F88DD753fill_el" offset="100%" stop-color="#fafad2" stop-opacity="1"/> 		</radialGradient> 		<radialGradient id="_D87CDA3E-A768-4E66-A256-0548F88DD753borderbackground" cx="10%" cy="10%" r="100%" fx="10%" fy="10%"> 			<stop offset="0%" stop-color="#ffffff" stop-opacity="1" id="_D87CDA3E-A768-4E66-A256-0548F88DD753__D87CDA3E-A768-4E66-A256-0548F88DD753_19"/> 			<stop id="_D87CDA3E-A768-4E66-A256-0548F88DD753fill_border" offset="100%" stop-color="#000000" stop-opacity="1" stroke="#000000"/> 		</radialGradient> 	</defs> 	 	<rect id="_D87CDA3E-A768-4E66-A256-0548F88DD753text_frame" oryx:anchors="bottom top right left" x="1" y="1" width="138" height="47" rx="10" ry="10" stroke="none" stroke-width="0" fill="none"/> 	<rect id="_D87CDA3E-A768-4E66-A256-0548F88DD753bg_frame" oryx:resize="vertical horizontal" x="0" y="0" width="144" height="48" rx="10" ry="10" stroke="#000000" stroke-width="1" fill="url(#_D87CDA3E-A768-4E66-A256-0548F88DD753background) #ffffcc"/> 		<text font-size="12" id="_D87CDA3E-A768-4E66-A256-0548F88DD753text_name" x="72" y="24" oryx:align="middle center" oryx:fittoelem="text_frame" stroke="black" text-anchor="middle" stroke-width="0pt" letter-spacing="-0.01px" fill="#000000" transform="rotate(0 72 24)" visibility="inherit" oryx:fontSize="12"><tspan x="72" y="24" dy="5">Approval by PM</tspan></text>     <g id="_D87CDA3E-A768-4E66-A256-0548F88DD753manualTask" transform="scale(0.7,0.7) translate(8,8)" display="none">     	<path oryx:anchors="top left" id="_D87CDA3E-A768-4E66-A256-0548F88DD753frame" style="opacity:1;fill:none;fill-opacity:1;stroke-width:1" d="M0.5,3.751l4.083-3.25c0,0,11.166,0.083,12.083,0.083s-2.417,2.917-1.5,2.917     s11.667,0,12.584,0c1.166,1.708-0.168,3.167-0.834,3.667s0.875,1.917-1,4.417c-0.75,0.25,0.75,1.875-1.333,3.333     c-1.167,0.583,0.583,1.542-1.25,2.833c-1.167,0-20.833,0.083-20.833,0.083l-2-1.333V3.751z" stroke="#000000"/> 		<path id="_D87CDA3E-A768-4E66-A256-0548F88DD753frame2" oryx:anchors="top left" style="opacity:1;fill:none;stroke-width:2" d="M 13.5 7 L 27 7" stroke="#000000"/> 		<path id="_D87CDA3E-A768-4E66-A256-0548F88DD753frame3" oryx:anchors="top left" style="opacity:1;fill:none;stroke-width:2" d="M 13.5 11 L 26 11" stroke="#000000"/> 		<path id="_D87CDA3E-A768-4E66-A256-0548F88DD753frame4" oryx:anchors="top left" style="opacity:1;fill:none;stroke-width:1.5" d="M 14 14.5 L 25 14.5" stroke="#000000"/> 		<path id="_D87CDA3E-A768-4E66-A256-0548F88DD753frame5" oryx:anchors="top left" style="opacity:1;fill:none;stroke-width:1.5" d="M 8.2 3.1 L 15 3.1" stroke="#000000"/> 	</g> 	 	<g id="_D87CDA3E-A768-4E66-A256-0548F88DD753businessRuleTask" transform="scale(0.7,0.7) translate(8,8)" display="none"> 		<rect id="_D87CDA3E-A768-4E66-A256-0548F88DD753frame6" oryx:anchors="top left" x="0" y="0" width="22" height="4" style="opacity:1;fill:#B3B1B3;fill-opacity:1;" stroke="#000000"/> 		<rect id="_D87CDA3E-A768-4E66-A256-0548F88DD753frame7" oryx:anchors="top left" x="0" y="4" style="opacity:1;fill:none;" width="22" height="12" stroke="#000000"/> 		<path id="_D87CDA3E-A768-4E66-A256-0548F88DD753frame8" oryx:anchors="top left" style="opacity:1;fill:none;" d="M 0 10 L 22 10" stroke="#000000"/> 		<path id="_D87CDA3E-A768-4E66-A256-0548F88DD753frame9" oryx:anchors="top left" style="opacity:1; fill:none;" d="M 7 4 L 7 16" stroke="#000000"/> 	</g> 	 	<g id="_D87CDA3E-A768-4E66-A256-0548F88DD753scriptTask" transform="scale(0.7,0.7) translate(8,8)" display="none"> 		<path oryx:anchors="top left" id="_D87CDA3E-A768-4E66-A256-0548F88DD753frame10" style="opacity:1;fill:none;" stroke="#000000" d="M6.402,0.5h14.5c0,0-5.833,2.833-5.833,5.583s4.417,6,4.417,9.167    s-4.167,5.083-4.167,5.083H0.235c0,0,5-2.667,5-5s-4.583-6.75-4.583-9.25S6.402,0.5,6.402,0.5z"/> 		<path oryx:anchors="top left" id="_D87CDA3E-A768-4E66-A256-0548F88DD753frame11" style="opacity:1;fill:none;stroke-width:1.5" d="M 3.5 4.5 L 13.5 4.5" stroke="#000000"/> 		<path oryx:anchors="top left" id="_D87CDA3E-A768-4E66-A256-0548F88DD753frame12" style="opacity:1;fill:none;stroke-width:1.5" d="M 3.8 8.5 L 13.8 8.5" stroke="#000000"/> 		<path oryx:anchors="top left" id="_D87CDA3E-A768-4E66-A256-0548F88DD753frame13" style="opacity:1;fill:none;stroke-width:1.5" d="M 6.3 12.5 L 16.3 12.5" stroke="#000000"/> 		<path oryx:anchors="top left" id="_D87CDA3E-A768-4E66-A256-0548F88DD753frame14" style="opacity:1;fill:none;stroke-width:1.5" d="M 6.5 16.5 L 16.5 16.5" stroke="#000000"/> 	</g> 	 	<g id="_D87CDA3E-A768-4E66-A256-0548F88DD753userTask" transform="scale(0.7,0.7) translate(8,8)" display="inherit"> 		<path id="_D87CDA3E-A768-4E66-A256-0548F88DD753frame15" oryx:anchors="top left" style="opacity:1;fill:#F4F6F7" stroke="#000000" d="M0.585,24.167h24.083v-7.833c0,0-2.333-3.917-7.083-5.167h-9.25    c-4.417,1.333-7.833,5.75-7.833,5.75L0.585,24.167z"/> 		<path id="_D87CDA3E-A768-4E66-A256-0548F88DD753frame16" oryx:anchors="top left" style="opacity:1;fill:none" d="M 6 20 L 6 24" stroke="#000000"/> 		<path id="_D87CDA3E-A768-4E66-A256-0548F88DD753frame17" oryx:anchors="top left" style="opacity:1;fill:none" d="M 20 20 L 20 24" stroke="#000000"/> 		<circle id="_D87CDA3E-A768-4E66-A256-0548F88DD753frame18" oryx:anchors="top left" fill="black" cx="13.002" cy="5.916" r="5.417" stroke="#000000"/> 		<path id="_D87CDA3E-A768-4E66-A256-0548F88DD753frame19" oryx:anchors="top left" style="opacity:1;fill:#F0EFF0;" stroke="#000000" d="M8.043,7.083c0,0,2.814-2.426,5.376-1.807s4.624-0.693,4.624-0.693    c0.25,1.688,0.042,3.75-1.458,5.584c0,0,1.083,0.75,1.083,1.5s0.125,1.875-1,3s-5.5,1.25-6.75,0S8.668,12.834,8.668,12    s0.583-1.25,1.25-1.917C8.835,9.5,7.419,7.708,8.043,7.083z"/> 	</g> 	 	<g id="_D87CDA3E-A768-4E66-A256-0548F88DD753serviceTask" transform="scale(0.7,0.7) translate(8,8)" display="none"> 		<polygon oryx:anchors="top left" id="_D87CDA3E-A768-4E66-A256-0548F88DD753frame20" style="opacity:1;fill:#ffffff" stroke="#000000" points="15.392,5.064 17.954,2.502 20.347,4.895 17.786,7.455     18.729,9.732 22.353,9.732 22.353,13.115 18.731,13.115 17.788,15.392 20.351,17.955 17.958,20.347 15.397,17.786 13.12,18.729     13.12,22.353 9.737,22.353 9.737,18.731 7.46,17.788 4.897,20.35 2.506,17.958 5.066,15.397 4.124,13.12 0.5,13.12 0.5,9.737     4.121,9.737 5.065,7.461 2.503,4.898 4.895,2.506 7.455,5.066 9.732,4.125 9.732,0.5 13.116,0.5 13.116,4.121 "/> 		<circle oryx:anchors="top left" id="_D87CDA3E-A768-4E66-A256-0548F88DD753frame21" style="opacity:1;fill:none" stroke="#000000" cx="11.427" cy="11.426" r="3.714"/> 		<polygon oryx:anchors="top left" id="_D87CDA3E-A768-4E66-A256-0548F88DD753frame22" style="opacity:1;fill:#ffffff" stroke="#000000" points="21.392,11.064 23.954,8.502 26.347,10.895 23.786,13.455     24.729,15.732 28.353,15.732 28.353,19.115 24.731,19.115 23.788,21.392 26.351,23.955 23.958,26.347 21.397,23.786 19.12,24.729     19.12,28.353 15.737,28.353 15.737,24.731 13.46,23.788 10.897,26.35 8.506,23.958 11.066,21.397 10.124,19.12 6.5,19.12     6.5,15.737 10.121,15.737 11.065,13.461 8.503,10.898 10.895,8.506 13.455,11.066 15.732,10.125 15.732,6.5 19.116,6.5     19.116,10.121 "/> 		<circle oryx:anchors="top left" id="_D87CDA3E-A768-4E66-A256-0548F88DD753frame23" style="opacity:1;fill:none;" stroke="#000000" cx="17.427" cy="17.426" r="3.714"/> 	</g> 	 	<g id="_D87CDA3E-A768-4E66-A256-0548F88DD753sendTask" display="none"> 		<path id="_D87CDA3E-A768-4E66-A256-0548F88DD753stframe24" oryx:anchors="left top" stroke="#FFFFFF" fill="black" stroke-width="1" d="M8,11 L8,21 L24,21 L24,11 L16,17z"/> 		<path id="_D87CDA3E-A768-4E66-A256-0548F88DD753stframe25" oryx:anchors="left top" stroke="#FFFFFF" fill="black" stroke-width="1" d="M7,10 L16,17 L25 10z"/> 	</g> 	 	<g id="_D87CDA3E-A768-4E66-A256-0548F88DD753receiveTask" display="none"> 		<path id="_D87CDA3E-A768-4E66-A256-0548F88DD753frame26" oryx:anchors="left top" stroke="#000000" fill="none" stroke-width="1" d="M8,11 L8,21 L24,21 L24,11z M8,11 L16,17 L24,11"/> 	</g> 	 	<g id="_D87CDA3E-A768-4E66-A256-0548F88DD753none" display="inherit"/>  	<g id="_D87CDA3E-A768-4E66-A256-0548F88DD753sequential" display="none">         <path oryx:anchors="bottom" fill="none" stroke="#000000" stroke-width="2" d=" M68.44 44  h10  M68.44 40  h10  M68.44 36  h10 " id="_D87CDA3E-A768-4E66-A256-0548F88DD753__D87CDA3E-A768-4E66-A256-0548F88DD753_20"/>     </g>   </g></g><g class="children" style="overflow:hidden"/><g class="edge"/></g><g class="controls"><g class="dockers"/><g class="magnets" transform="translate(96, 16)"><g pointer-events="all" display="none" transform="translate(-7, 4)"><circle cx="8" cy="8" r="4" stroke="none" fill="red" fill-opacity="0.3"/></g><g pointer-events="all" display="none" transform="translate(-7, 16)"><circle cx="8" cy="8" r="4" stroke="none" fill="red" fill-opacity="0.3"/></g><g pointer-events="all" display="none" transform="translate(-7, 28)"><circle cx="8" cy="8" r="4" stroke="none" fill="red" fill-opacity="0.3"/></g><g pointer-events="all" display="none" transform="translate(28, 39)"><circle cx="8" cy="8" r="4" stroke="none" fill="red" fill-opacity="0.3"/></g><g pointer-events="all" display="none" transform="translate(64, 39)"><circle cx="8" cy="8" r="4" stroke="none" fill="red" fill-opacity="0.3"/></g><g pointer-events="all" display="none" transform="translate(100, 39)"><circle cx="8" cy="8" r="4" stroke="none" fill="red" fill-opacity="0.3"/></g><g pointer-events="all" display="none" transform="translate(135, 4)"><circle cx="8" cy="8" r="4" stroke="none" fill="red" fill-opacity="0.3"/></g><g pointer-events="all" display="none" transform="translate(135, 16)"><circle cx="8" cy="8" r="4" stroke="none" fill="red" fill-opacity="0.3"/></g><g pointer-events="all" display="none" transform="translate(135, 28)"><circle cx="8" cy="8" r="4" stroke="none" fill="red" fill-opacity="0.3"/></g><g pointer-events="all" display="none" transform="translate(28, -7)"><circle cx="8" cy="8" r="4" stroke="none" fill="red" fill-opacity="0.3"/></g><g pointer-events="all" display="none" transform="translate(64, -7)"><circle cx="8" cy="8" r="4" stroke="none" fill="red" fill-opacity="0.3"/></g><g pointer-events="all" display="none" transform="translate(100, -7)"><circle cx="8" cy="8" r="4" stroke="none" fill="red" fill-opacity="0.3"/></g><g pointer-events="all" display="none" transform="translate(64, 16)"><circle cx="8" cy="8" r="4" stroke="none" fill="red" fill-opacity="0.3"/></g></g></g></g><g id="_AD93E5B7-F3CF-47BD-BA4E-97C5ACFBC07C" bpmn2nodeid="_EF7828C0-276D-4707-BF26-6FEEA7850C0D"><g class="stencils" transform="translate(289, 15)"><g class="me"><g pointer-events="fill" oryx:minimumSize="50 40" id="_AD93E5B7-F3CF-47BD-BA4E-97C5ACFBC07C">   	<defs id="_AD93E5B7-F3CF-47BD-BA4E-97C5ACFBC07C__AD93E5B7-F3CF-47BD-BA4E-97C5ACFBC07C_17"> 		<radialGradient id="_AD93E5B7-F3CF-47BD-BA4E-97C5ACFBC07Cbackground" cx="10%" cy="10%" r="100%" fx="10%" fy="10%"> 			<stop offset="0%" stop-color="#ffffff" stop-opacity="1" id="_AD93E5B7-F3CF-47BD-BA4E-97C5ACFBC07C__AD93E5B7-F3CF-47BD-BA4E-97C5ACFBC07C_18"/> 			<stop id="_AD93E5B7-F3CF-47BD-BA4E-97C5ACFBC07Cfill_el" offset="100%" stop-color="#fafad2" stop-opacity="1"/> 		</radialGradient> 		<radialGradient id="_AD93E5B7-F3CF-47BD-BA4E-97C5ACFBC07Cborderbackground" cx="10%" cy="10%" r="100%" fx="10%" fy="10%"> 			<stop offset="0%" stop-color="#ffffff" stop-opacity="1" id="_AD93E5B7-F3CF-47BD-BA4E-97C5ACFBC07C__AD93E5B7-F3CF-47BD-BA4E-97C5ACFBC07C_19"/> 			<stop id="_AD93E5B7-F3CF-47BD-BA4E-97C5ACFBC07Cfill_border" offset="100%" stop-color="#000000" stop-opacity="1" stroke="#000000"/> 		</radialGradient> 	</defs> 	 	<rect id="_AD93E5B7-F3CF-47BD-BA4E-97C5ACFBC07Ctext_frame" oryx:anchors="bottom top right left" x="1" y="1" width="127" height="47" rx="10" ry="10" stroke="none" stroke-width="0" fill="none"/> 	<rect id="_AD93E5B7-F3CF-47BD-BA4E-97C5ACFBC07Cbg_frame" oryx:resize="vertical horizontal" x="0" y="0" width="133" height="48" rx="10" ry="10" stroke="#000000" stroke-width="1" fill="url(#_AD93E5B7-F3CF-47BD-BA4E-97C5ACFBC07Cbackground) #ffffcc"/> 		<text font-size="12" id="_AD93E5B7-F3CF-47BD-BA4E-97C5ACFBC07Ctext_name" x="66.5" y="24" oryx:align="middle center" oryx:fittoelem="text_frame" stroke="black" text-anchor="middle" stroke-width="0pt" letter-spacing="-0.01px" fill="#000000" transform="rotate(0 66.5 24)" visibility="inherit" oryx:fontSize="12"><tspan x="66.5" y="24" dy="5" id="ext-gen624">Approval by HR</tspan></text>     <g id="_AD93E5B7-F3CF-47BD-BA4E-97C5ACFBC07CmanualTask" transform="scale(0.7,0.7) translate(8,8)" display="none">     	<path oryx:anchors="top left" id="_AD93E5B7-F3CF-47BD-BA4E-97C5ACFBC07Cframe" style="opacity:1;fill:none;fill-opacity:1;stroke-width:1" d="M0.5,3.751l4.083-3.25c0,0,11.166,0.083,12.083,0.083s-2.417,2.917-1.5,2.917     s11.667,0,12.584,0c1.166,1.708-0.168,3.167-0.834,3.667s0.875,1.917-1,4.417c-0.75,0.25,0.75,1.875-1.333,3.333     c-1.167,0.583,0.583,1.542-1.25,2.833c-1.167,0-20.833,0.083-20.833,0.083l-2-1.333V3.751z" stroke="#000000"/> 		<path id="_AD93E5B7-F3CF-47BD-BA4E-97C5ACFBC07Cframe2" oryx:anchors="top left" style="opacity:1;fill:none;stroke-width:2" d="M 13.5 7 L 27 7" stroke="#000000"/> 		<path id="_AD93E5B7-F3CF-47BD-BA4E-97C5ACFBC07Cframe3" oryx:anchors="top left" style="opacity:1;fill:none;stroke-width:2" d="M 13.5 11 L 26 11" stroke="#000000"/> 		<path id="_AD93E5B7-F3CF-47BD-BA4E-97C5ACFBC07Cframe4" oryx:anchors="top left" style="opacity:1;fill:none;stroke-width:1.5" d="M 14 14.5 L 25 14.5" stroke="#000000"/> 		<path id="_AD93E5B7-F3CF-47BD-BA4E-97C5ACFBC07Cframe5" oryx:anchors="top left" style="opacity:1;fill:none;stroke-width:1.5" d="M 8.2 3.1 L 15 3.1" stroke="#000000"/> 	</g> 	 	<g id="_AD93E5B7-F3CF-47BD-BA4E-97C5ACFBC07CbusinessRuleTask" transform="scale(0.7,0.7) translate(8,8)" display="none"> 		<rect id="_AD93E5B7-F3CF-47BD-BA4E-97C5ACFBC07Cframe6" oryx:anchors="top left" x="0" y="0" width="22" height="4" style="opacity:1;fill:#B3B1B3;fill-opacity:1;" stroke="#000000"/> 		<rect id="_AD93E5B7-F3CF-47BD-BA4E-97C5ACFBC07Cframe7" oryx:anchors="top left" x="0" y="4" style="opacity:1;fill:none;" width="22" height="12" stroke="#000000"/> 		<path id="_AD93E5B7-F3CF-47BD-BA4E-97C5ACFBC07Cframe8" oryx:anchors="top left" style="opacity:1;fill:none;" d="M 0 10 L 22 10" stroke="#000000"/> 		<path id="_AD93E5B7-F3CF-47BD-BA4E-97C5ACFBC07Cframe9" oryx:anchors="top left" style="opacity:1; fill:none;" d="M 7 4 L 7 16" stroke="#000000"/> 	</g> 	 	<g id="_AD93E5B7-F3CF-47BD-BA4E-97C5ACFBC07CscriptTask" transform="scale(0.7,0.7) translate(8,8)" display="none"> 		<path oryx:anchors="top left" id="_AD93E5B7-F3CF-47BD-BA4E-97C5ACFBC07Cframe10" style="opacity:1;fill:none;" stroke="#000000" d="M6.402,0.5h14.5c0,0-5.833,2.833-5.833,5.583s4.417,6,4.417,9.167    s-4.167,5.083-4.167,5.083H0.235c0,0,5-2.667,5-5s-4.583-6.75-4.583-9.25S6.402,0.5,6.402,0.5z"/> 		<path oryx:anchors="top left" id="_AD93E5B7-F3CF-47BD-BA4E-97C5ACFBC07Cframe11" style="opacity:1;fill:none;stroke-width:1.5" d="M 3.5 4.5 L 13.5 4.5" stroke="#000000"/> 		<path oryx:anchors="top left" id="_AD93E5B7-F3CF-47BD-BA4E-97C5ACFBC07Cframe12" style="opacity:1;fill:none;stroke-width:1.5" d="M 3.8 8.5 L 13.8 8.5" stroke="#000000"/> 		<path oryx:anchors="top left" id="_AD93E5B7-F3CF-47BD-BA4E-97C5ACFBC07Cframe13" style="opacity:1;fill:none;stroke-width:1.5" d="M 6.3 12.5 L 16.3 12.5" stroke="#000000"/> 		<path oryx:anchors="top left" id="_AD93E5B7-F3CF-47BD-BA4E-97C5ACFBC07Cframe14" style="opacity:1;fill:none;stroke-width:1.5" d="M 6.5 16.5 L 16.5 16.5" stroke="#000000"/> 	</g> 	 	<g id="_AD93E5B7-F3CF-47BD-BA4E-97C5ACFBC07CuserTask" transform="scale(0.7,0.7) translate(8,8)" display="inherit"> 		<path id="_AD93E5B7-F3CF-47BD-BA4E-97C5ACFBC07Cframe15" oryx:anchors="top left" style="opacity:1;fill:#F4F6F7" stroke="#000000" d="M0.585,24.167h24.083v-7.833c0,0-2.333-3.917-7.083-5.167h-9.25    c-4.417,1.333-7.833,5.75-7.833,5.75L0.585,24.167z"/> 		<path id="_AD93E5B7-F3CF-47BD-BA4E-97C5ACFBC07Cframe16" oryx:anchors="top left" style="opacity:1;fill:none" d="M 6 20 L 6 24" stroke="#000000"/> 		<path id="_AD93E5B7-F3CF-47BD-BA4E-97C5ACFBC07Cframe17" oryx:anchors="top left" style="opacity:1;fill:none" d="M 20 20 L 20 24" stroke="#000000"/> 		<circle id="_AD93E5B7-F3CF-47BD-BA4E-97C5ACFBC07Cframe18" oryx:anchors="top left" fill="black" cx="13.002" cy="5.916" r="5.417" stroke="#000000"/> 		<path id="_AD93E5B7-F3CF-47BD-BA4E-97C5ACFBC07Cframe19" oryx:anchors="top left" style="opacity:1;fill:#F0EFF0;" stroke="#000000" d="M8.043,7.083c0,0,2.814-2.426,5.376-1.807s4.624-0.693,4.624-0.693    c0.25,1.688,0.042,3.75-1.458,5.584c0,0,1.083,0.75,1.083,1.5s0.125,1.875-1,3s-5.5,1.25-6.75,0S8.668,12.834,8.668,12    s0.583-1.25,1.25-1.917C8.835,9.5,7.419,7.708,8.043,7.083z"/> 	</g> 	 	<g id="_AD93E5B7-F3CF-47BD-BA4E-97C5ACFBC07CserviceTask" transform="scale(0.7,0.7) translate(8,8)" display="none"> 		<polygon oryx:anchors="top left" id="_AD93E5B7-F3CF-47BD-BA4E-97C5ACFBC07Cframe20" style="opacity:1;fill:#ffffff" stroke="#000000" points="15.392,5.064 17.954,2.502 20.347,4.895 17.786,7.455     18.729,9.732 22.353,9.732 22.353,13.115 18.731,13.115 17.788,15.392 20.351,17.955 17.958,20.347 15.397,17.786 13.12,18.729     13.12,22.353 9.737,22.353 9.737,18.731 7.46,17.788 4.897,20.35 2.506,17.958 5.066,15.397 4.124,13.12 0.5,13.12 0.5,9.737     4.121,9.737 5.065,7.461 2.503,4.898 4.895,2.506 7.455,5.066 9.732,4.125 9.732,0.5 13.116,0.5 13.116,4.121 "/> 		<circle oryx:anchors="top left" id="_AD93E5B7-F3CF-47BD-BA4E-97C5ACFBC07Cframe21" style="opacity:1;fill:none" stroke="#000000" cx="11.427" cy="11.426" r="3.714"/> 		<polygon oryx:anchors="top left" id="_AD93E5B7-F3CF-47BD-BA4E-97C5ACFBC07Cframe22" style="opacity:1;fill:#ffffff" stroke="#000000" points="21.392,11.064 23.954,8.502 26.347,10.895 23.786,13.455     24.729,15.732 28.353,15.732 28.353,19.115 24.731,19.115 23.788,21.392 26.351,23.955 23.958,26.347 21.397,23.786 19.12,24.729     19.12,28.353 15.737,28.353 15.737,24.731 13.46,23.788 10.897,26.35 8.506,23.958 11.066,21.397 10.124,19.12 6.5,19.12     6.5,15.737 10.121,15.737 11.065,13.461 8.503,10.898 10.895,8.506 13.455,11.066 15.732,10.125 15.732,6.5 19.116,6.5     19.116,10.121 "/> 		<circle oryx:anchors="top left" id="_AD93E5B7-F3CF-47BD-BA4E-97C5ACFBC07Cframe23" style="opacity:1;fill:none;" stroke="#000000" cx="17.427" cy="17.426" r="3.714"/> 	</g> 	 	<g id="_AD93E5B7-F3CF-47BD-BA4E-97C5ACFBC07CsendTask" display="none"> 		<path id="_AD93E5B7-F3CF-47BD-BA4E-97C5ACFBC07Cstframe24" oryx:anchors="left top" stroke="#FFFFFF" fill="black" stroke-width="1" d="M8,11 L8,21 L24,21 L24,11 L16,17z"/> 		<path id="_AD93E5B7-F3CF-47BD-BA4E-97C5ACFBC07Cstframe25" oryx:anchors="left top" stroke="#FFFFFF" fill="black" stroke-width="1" d="M7,10 L16,17 L25 10z"/> 	</g> 	 	<g id="_AD93E5B7-F3CF-47BD-BA4E-97C5ACFBC07CreceiveTask" display="none"> 		<path id="_AD93E5B7-F3CF-47BD-BA4E-97C5ACFBC07Cframe26" oryx:anchors="left top" stroke="#000000" fill="none" stroke-width="1" d="M8,11 L8,21 L24,21 L24,11z M8,11 L16,17 L24,11"/> 	</g> 	 	<g id="_AD93E5B7-F3CF-47BD-BA4E-97C5ACFBC07Cnone" display="inherit"/>  	<g id="_AD93E5B7-F3CF-47BD-BA4E-97C5ACFBC07Csequential" display="none">         <path oryx:anchors="bottom" fill="none" stroke="#000000" stroke-width="2" d=" M62.83000000000001 44  h10  M62.83000000000001 40  h10  M62.83000000000001 36  h10 " id="_AD93E5B7-F3CF-47BD-BA4E-97C5ACFBC07C__AD93E5B7-F3CF-47BD-BA4E-97C5ACFBC07C_20"/>     </g>   </g></g><g class="children" style="overflow:hidden"/><g class="edge"/></g><g class="controls"><g class="dockers"/><g class="magnets" transform="translate(289, 15)"><g pointer-events="all" display="none" transform="translate(-7, 4)"><circle cx="8" cy="8" r="4" stroke="none" fill="red" fill-opacity="0.3"/></g><g pointer-events="all" display="none" transform="translate(-7, 16)"><circle cx="8" cy="8" r="4" stroke="none" fill="red" fill-opacity="0.3"/></g><g pointer-events="all" display="none" transform="translate(-7, 28)"><circle cx="8" cy="8" r="4" stroke="none" fill="red" fill-opacity="0.3"/></g><g pointer-events="all" display="none" transform="translate(25.25, 39)"><circle cx="8" cy="8" r="4" stroke="none" fill="red" fill-opacity="0.3"/></g><g pointer-events="all" display="none" transform="translate(58.5, 39)"><circle cx="8" cy="8" r="4" stroke="none" fill="red" fill-opacity="0.3"/></g><g pointer-events="all" display="none" transform="translate(91.75, 39)"><circle cx="8" cy="8" r="4" stroke="none" fill="red" fill-opacity="0.3"/></g><g pointer-events="all" display="none" transform="translate(124, 4)"><circle cx="8" cy="8" r="4" stroke="none" fill="red" fill-opacity="0.3"/></g><g pointer-events="all" display="none" transform="translate(124, 16)"><circle cx="8" cy="8" r="4" stroke="none" fill="red" fill-opacity="0.3"/></g><g pointer-events="all" display="none" transform="translate(124, 28)"><circle cx="8" cy="8" r="4" stroke="none" fill="red" fill-opacity="0.3"/></g><g pointer-events="all" display="none" transform="translate(25.25, -7)"><circle cx="8" cy="8" r="4" stroke="none" fill="red" fill-opacity="0.3"/></g><g pointer-events="all" display="none" transform="translate(58.5, -7)"><circle cx="8" cy="8" r="4" stroke="none" fill="red" fill-opacity="0.3"/></g><g pointer-events="all" display="none" transform="translate(91.75, -7)"><circle cx="8" cy="8" r="4" stroke="none" fill="red" fill-opacity="0.3"/></g><g pointer-events="all" display="none" transform="translate(58.5, 16)"><circle cx="8" cy="8" r="4" stroke="none" fill="red" fill-opacity="0.3"/></g></g></g></g><g id="_979D950F-35A2-4928-828E-9B9F625E4406" bpmn2nodeid="_82446762-4C79-472F-BD19-5C937474EDCB"><g class="stencils" transform="translate(461, 17)"><g class="me"><g pointer-events="fill" oryx:minimumSize="50 40" id="_979D950F-35A2-4928-828E-9B9F625E4406">   	<defs id="_979D950F-35A2-4928-828E-9B9F625E4406__979D950F-35A2-4928-828E-9B9F625E4406_17"> 		<radialGradient id="_979D950F-35A2-4928-828E-9B9F625E4406background" cx="10%" cy="10%" r="100%" fx="10%" fy="10%"> 			<stop offset="0%" stop-color="#ffffff" stop-opacity="1" id="_979D950F-35A2-4928-828E-9B9F625E4406__979D950F-35A2-4928-828E-9B9F625E4406_18"/> 			<stop id="_979D950F-35A2-4928-828E-9B9F625E4406fill_el" offset="100%" stop-color="#fafad2" stop-opacity="1"/> 		</radialGradient> 		<radialGradient id="_979D950F-35A2-4928-828E-9B9F625E4406borderbackground" cx="10%" cy="10%" r="100%" fx="10%" fy="10%"> 			<stop offset="0%" stop-color="#ffffff" stop-opacity="1" id="_979D950F-35A2-4928-828E-9B9F625E4406__979D950F-35A2-4928-828E-9B9F625E4406_19"/> 			<stop id="_979D950F-35A2-4928-828E-9B9F625E4406fill_border" offset="100%" stop-color="#000000" stop-opacity="1" stroke="#000000"/> 		</radialGradient> 	</defs> 	 	<rect id="_979D950F-35A2-4928-828E-9B9F625E4406text_frame" oryx:anchors="bottom top right left" x="1" y="1" width="74" height="47" rx="10" ry="10" stroke="none" stroke-width="0" fill="none"/> 	<rect id="_979D950F-35A2-4928-828E-9B9F625E4406bg_frame" oryx:resize="vertical horizontal" x="0" y="0" width="80" height="48" rx="10" ry="10" stroke="#000000" stroke-width="1" fill="url(#_979D950F-35A2-4928-828E-9B9F625E4406background) #ffffcc"/> 		<text font-size="12" id="_979D950F-35A2-4928-828E-9B9F625E4406text_name" x="40" y="24" oryx:align="middle center" oryx:fittoelem="text_frame" stroke="black" text-anchor="middle" stroke-width="0pt" letter-spacing="-0.01px" fill="#000000" transform="rotate(0 40 24)" visibility="inherit" oryx:fontSize="12"><tspan x="40" y="24" dy="5">Script</tspan></text>     <g id="_979D950F-35A2-4928-828E-9B9F625E4406manualTask" transform="scale(0.7,0.7) translate(8,8)" display="none">     	<path oryx:anchors="top left" id="_979D950F-35A2-4928-828E-9B9F625E4406frame" style="opacity:1;fill:none;fill-opacity:1;stroke-width:1" d="M0.5,3.751l4.083-3.25c0,0,11.166,0.083,12.083,0.083s-2.417,2.917-1.5,2.917     s11.667,0,12.584,0c1.166,1.708-0.168,3.167-0.834,3.667s0.875,1.917-1,4.417c-0.75,0.25,0.75,1.875-1.333,3.333     c-1.167,0.583,0.583,1.542-1.25,2.833c-1.167,0-20.833,0.083-20.833,0.083l-2-1.333V3.751z" stroke="#000000"/> 		<path id="_979D950F-35A2-4928-828E-9B9F625E4406frame2" oryx:anchors="top left" style="opacity:1;fill:none;stroke-width:2" d="M 13.5 7 L 27 7" stroke="#000000"/> 		<path id="_979D950F-35A2-4928-828E-9B9F625E4406frame3" oryx:anchors="top left" style="opacity:1;fill:none;stroke-width:2" d="M 13.5 11 L 26 11" stroke="#000000"/> 		<path id="_979D950F-35A2-4928-828E-9B9F625E4406frame4" oryx:anchors="top left" style="opacity:1;fill:none;stroke-width:1.5" d="M 14 14.5 L 25 14.5" stroke="#000000"/> 		<path id="_979D950F-35A2-4928-828E-9B9F625E4406frame5" oryx:anchors="top left" style="opacity:1;fill:none;stroke-width:1.5" d="M 8.2 3.1 L 15 3.1" stroke="#000000"/> 	</g> 	 	<g id="_979D950F-35A2-4928-828E-9B9F625E4406businessRuleTask" transform="scale(0.7,0.7) translate(8,8)" display="none"> 		<rect id="_979D950F-35A2-4928-828E-9B9F625E4406frame6" oryx:anchors="top left" x="0" y="0" width="22" height="4" style="opacity:1;fill:#B3B1B3;fill-opacity:1;" stroke="#000000"/> 		<rect id="_979D950F-35A2-4928-828E-9B9F625E4406frame7" oryx:anchors="top left" x="0" y="4" style="opacity:1;fill:none;" width="22" height="12" stroke="#000000"/> 		<path id="_979D950F-35A2-4928-828E-9B9F625E4406frame8" oryx:anchors="top left" style="opacity:1;fill:none;" d="M 0 10 L 22 10" stroke="#000000"/> 		<path id="_979D950F-35A2-4928-828E-9B9F625E4406frame9" oryx:anchors="top left" style="opacity:1; fill:none;" d="M 7 4 L 7 16" stroke="#000000"/> 	</g> 	 	<g id="_979D950F-35A2-4928-828E-9B9F625E4406scriptTask" transform="scale(0.7,0.7) translate(8,8)" display="inherit"> 		<path oryx:anchors="top left" id="_979D950F-35A2-4928-828E-9B9F625E4406frame10" style="opacity:1;fill:none;" stroke="#000000" d="M6.402,0.5h14.5c0,0-5.833,2.833-5.833,5.583s4.417,6,4.417,9.167    s-4.167,5.083-4.167,5.083H0.235c0,0,5-2.667,5-5s-4.583-6.75-4.583-9.25S6.402,0.5,6.402,0.5z"/> 		<path oryx:anchors="top left" id="_979D950F-35A2-4928-828E-9B9F625E4406frame11" style="opacity:1;fill:none;stroke-width:1.5" d="M 3.5 4.5 L 13.5 4.5" stroke="#000000"/> 		<path oryx:anchors="top left" id="_979D950F-35A2-4928-828E-9B9F625E4406frame12" style="opacity:1;fill:none;stroke-width:1.5" d="M 3.8 8.5 L 13.8 8.5" stroke="#000000"/> 		<path oryx:anchors="top left" id="_979D950F-35A2-4928-828E-9B9F625E4406frame13" style="opacity:1;fill:none;stroke-width:1.5" d="M 6.3 12.5 L 16.3 12.5" stroke="#000000"/> 		<path oryx:anchors="top left" id="_979D950F-35A2-4928-828E-9B9F625E4406frame14" style="opacity:1;fill:none;stroke-width:1.5" d="M 6.5 16.5 L 16.5 16.5" stroke="#000000"/> 	</g> 	 	<g id="_979D950F-35A2-4928-828E-9B9F625E4406userTask" transform="scale(0.7,0.7) translate(8,8)" display="none"> 		<path id="_979D950F-35A2-4928-828E-9B9F625E4406frame15" oryx:anchors="top left" style="opacity:1;fill:#F4F6F7" stroke="#000000" d="M0.585,24.167h24.083v-7.833c0,0-2.333-3.917-7.083-5.167h-9.25    c-4.417,1.333-7.833,5.75-7.833,5.75L0.585,24.167z"/> 		<path id="_979D950F-35A2-4928-828E-9B9F625E4406frame16" oryx:anchors="top left" style="opacity:1;fill:none" d="M 6 20 L 6 24" stroke="#000000"/> 		<path id="_979D950F-35A2-4928-828E-9B9F625E4406frame17" oryx:anchors="top left" style="opacity:1;fill:none" d="M 20 20 L 20 24" stroke="#000000"/> 		<circle id="_979D950F-35A2-4928-828E-9B9F625E4406frame18" oryx:anchors="top left" fill="black" cx="13.002" cy="5.916" r="5.417" stroke="#000000"/> 		<path id="_979D950F-35A2-4928-828E-9B9F625E4406frame19" oryx:anchors="top left" style="opacity:1;fill:#F0EFF0;" stroke="#000000" d="M8.043,7.083c0,0,2.814-2.426,5.376-1.807s4.624-0.693,4.624-0.693    c0.25,1.688,0.042,3.75-1.458,5.584c0,0,1.083,0.75,1.083,1.5s0.125,1.875-1,3s-5.5,1.25-6.75,0S8.668,12.834,8.668,12    s0.583-1.25,1.25-1.917C8.835,9.5,7.419,7.708,8.043,7.083z"/> 	</g> 	 	<g id="_979D950F-35A2-4928-828E-9B9F625E4406serviceTask" transform="scale(0.7,0.7) translate(8,8)" display="none"> 		<polygon oryx:anchors="top left" id="_979D950F-35A2-4928-828E-9B9F625E4406frame20" style="opacity:1;fill:#ffffff" stroke="#000000" points="15.392,5.064 17.954,2.502 20.347,4.895 17.786,7.455     18.729,9.732 22.353,9.732 22.353,13.115 18.731,13.115 17.788,15.392 20.351,17.955 17.958,20.347 15.397,17.786 13.12,18.729     13.12,22.353 9.737,22.353 9.737,18.731 7.46,17.788 4.897,20.35 2.506,17.958 5.066,15.397 4.124,13.12 0.5,13.12 0.5,9.737     4.121,9.737 5.065,7.461 2.503,4.898 4.895,2.506 7.455,5.066 9.732,4.125 9.732,0.5 13.116,0.5 13.116,4.121 "/> 		<circle oryx:anchors="top left" id="_979D950F-35A2-4928-828E-9B9F625E4406frame21" style="opacity:1;fill:none" stroke="#000000" cx="11.427" cy="11.426" r="3.714"/> 		<polygon oryx:anchors="top left" id="_979D950F-35A2-4928-828E-9B9F625E4406frame22" style="opacity:1;fill:#ffffff" stroke="#000000" points="21.392,11.064 23.954,8.502 26.347,10.895 23.786,13.455     24.729,15.732 28.353,15.732 28.353,19.115 24.731,19.115 23.788,21.392 26.351,23.955 23.958,26.347 21.397,23.786 19.12,24.729     19.12,28.353 15.737,28.353 15.737,24.731 13.46,23.788 10.897,26.35 8.506,23.958 11.066,21.397 10.124,19.12 6.5,19.12     6.5,15.737 10.121,15.737 11.065,13.461 8.503,10.898 10.895,8.506 13.455,11.066 15.732,10.125 15.732,6.5 19.116,6.5     19.116,10.121 "/> 		<circle oryx:anchors="top left" id="_979D950F-35A2-4928-828E-9B9F625E4406frame23" style="opacity:1;fill:none;" stroke="#000000" cx="17.427" cy="17.426" r="3.714"/> 	</g> 	 	<g id="_979D950F-35A2-4928-828E-9B9F625E4406sendTask" display="none"> 		<path id="_979D950F-35A2-4928-828E-9B9F625E4406stframe24" oryx:anchors="left top" stroke="#FFFFFF" fill="black" stroke-width="1" d="M8,11 L8,21 L24,21 L24,11 L16,17z"/> 		<path id="_979D950F-35A2-4928-828E-9B9F625E4406stframe25" oryx:anchors="left top" stroke="#FFFFFF" fill="black" stroke-width="1" d="M7,10 L16,17 L25 10z"/> 	</g> 	 	<g id="_979D950F-35A2-4928-828E-9B9F625E4406receiveTask" display="none"> 		<path id="_979D950F-35A2-4928-828E-9B9F625E4406frame26" oryx:anchors="left top" stroke="#000000" fill="none" stroke-width="1" d="M8,11 L8,21 L24,21 L24,11z M8,11 L16,17 L24,11"/> 	</g> 	 	<g id="_979D950F-35A2-4928-828E-9B9F625E4406none" display="inherit"/>  	<g id="_979D950F-35A2-4928-828E-9B9F625E4406sequential" display="none">         <path oryx:anchors="bottom" fill="none" stroke="#000000" stroke-width="2" d=" M35.800000000000004 44  h10  M35.800000000000004 40  h10  M35.800000000000004 36  h10 " id="_979D950F-35A2-4928-828E-9B9F625E4406__979D950F-35A2-4928-828E-9B9F625E4406_20"/>     </g>   </g></g><g class="children" style="overflow:hidden"/><g class="edge"/></g><g class="controls"><g class="dockers"/><g class="magnets" transform="translate(461, 17)"><g pointer-events="all" display="none" transform="translate(-7, 4)"><circle cx="8" cy="8" r="4" stroke="none" fill="red" fill-opacity="0.3"/></g><g pointer-events="all" display="none" transform="translate(-7, 16)"><circle cx="8" cy="8" r="4" stroke="none" fill="red" fill-opacity="0.3"/></g><g pointer-events="all" display="none" transform="translate(-7, 28)"><circle cx="8" cy="8" r="4" stroke="none" fill="red" fill-opacity="0.3"/></g><g pointer-events="all" display="none" transform="translate(12, 39)"><circle cx="8" cy="8" r="4" stroke="none" fill="red" fill-opacity="0.3"/></g><g pointer-events="all" display="none" transform="translate(32, 39)"><circle cx="8" cy="8" r="4" stroke="none" fill="red" fill-opacity="0.3"/></g><g pointer-events="all" display="none" transform="translate(52, 39)"><circle cx="8" cy="8" r="4" stroke="none" fill="red" fill-opacity="0.3"/></g><g pointer-events="all" display="none" transform="translate(71, 4)"><circle cx="8" cy="8" r="4" stroke="none" fill="red" fill-opacity="0.3"/></g><g pointer-events="all" display="none" transform="translate(71, 16)"><circle cx="8" cy="8" r="4" stroke="none" fill="red" fill-opacity="0.3"/></g><g pointer-events="all" display="none" transform="translate(71, 28)"><circle cx="8" cy="8" r="4" stroke="none" fill="red" fill-opacity="0.3"/></g><g pointer-events="all" display="none" transform="translate(12, -7)"><circle cx="8" cy="8" r="4" stroke="none" fill="red" fill-opacity="0.3"/></g><g pointer-events="all" display="none" transform="translate(32, -7)"><circle cx="8" cy="8" r="4" stroke="none" fill="red" fill-opacity="0.3"/></g><g pointer-events="all" display="none" transform="translate(52, -7)"><circle cx="8" cy="8" r="4" stroke="none" fill="red" fill-opacity="0.3"/></g><g pointer-events="all" display="none" transform="translate(32, 16)"><circle cx="8" cy="8" r="4" stroke="none" fill="red" fill-opacity="0.3"/></g></g></g></g></g><g class="edge"><g id="_D666FEFE-2FCC-45D0-83F8-C4F55F6C0C68" bpmn2nodeid="_0F5E1064-0D5E-4739-8982-734B697BB612"><g class="stencils"><g class="me"><g pointer-events="painted" bpmn2nodeid="_F7E27CBD-03B2-4EE4-8A13-27678A36EBFD"><path id="_D666FEFE-2FCC-45D0-83F8-C4F55F6C0C68_1" d="M541.4482592646298 36.99522185498715L587.5908032353702 32.42665314501285 " stroke="#000000" fill="none" stroke-width="2" stroke-linecap="round" stroke-linejoin="round" marker-start="url(#_D666FEFE-2FCC-45D0-83F8-C4F55F6C0C68start)" marker-end="url(#_D666FEFE-2FCC-45D0-83F8-C4F55F6C0C68end)"/></g><text id="_D666FEFE-2FCC-45D0-83F8-C4F55F6C0C68text_name" font-size="12" x="555.4482592646298" y="22.99522185498715" oryx:edgePosition="startTop" stroke-width="0pt" letter-spacing="-0.01px" fill="#000000" text-anchor="start" transform="rotate(354.3455791773593 541.4482592646298 36.99522185498715)" visibility="inherit" oryx:fontSize="12"/></g><g class="children" style="overflow:hidden"/><g class="edge"/></g><g class="controls"><g class="dockers"/><g class="magnets"/></g></g><g id="_889F3FC4-4F83-4B5F-8B01-3AC633F50B76" bpmn2nodeid="_142D531B-6E94-48FE-8688-03894810A5E5"><g class="stencils"><g class="me"><g pointer-events="painted" bpmn2nodeid="_34ECDCD2-3038-4E63-A944-88490F2A44FC"><path id="_889F3FC4-4F83-4B5F-8B01-3AC633F50B76_1" d="M46.447067895799044 32.01477088366563L95.29121335420095 35.22351036633437 " stroke="#000000" fill="none" stroke-width="2" stroke-linecap="round" stroke-linejoin="round" marker-start="url(#_889F3FC4-4F83-4B5F-8B01-3AC633F50B76start)" marker-end="url(#_889F3FC4-4F83-4B5F-8B01-3AC633F50B76end)"/></g><text id="_889F3FC4-4F83-4B5F-8B01-3AC633F50B76text_name" font-size="12" x="60.447067895799044" y="18.014770883665634" oryx:edgePosition="startTop" stroke-width="0pt" letter-spacing="-0.01px" fill="#000000" text-anchor="start" transform="rotate(3.758555685472004 46.447067895799044 32.01477088366563)" visibility="inherit" oryx:fontSize="12"/></g><g class="children" style="overflow:hidden"/><g class="edge"/></g><g class="controls"><g class="dockers"/><g class="magnets"/></g></g><g id="_08C653B8-C018-4594-A5C2-8F0D91371FD5" bpmn2nodeid="_D99B77A7-03BC-4AB5-B17A-594E499DDD4A"><g class="stencils"><g class="me"><g pointer-events="painted" bpmn2nodeid="_5E644B5D-7017-4334-A1C9-E9D647755831"><path id="_08C653B8-C018-4594-A5C2-8F0D91371FD5_1" d="M240.77732952808117 39.6118542425169L288.58204547191883 39.3568957574831 " stroke="#000000" fill="none" stroke-width="2" stroke-linecap="round" stroke-linejoin="round" marker-start="url(#_08C653B8-C018-4594-A5C2-8F0D91371FD5start)" marker-end="url(#_08C653B8-C018-4594-A5C2-8F0D91371FD5end)"/></g><text id="_08C653B8-C018-4594-A5C2-8F0D91371FD5text_name" font-size="12" x="254.77732952808117" y="25.6118542425169" oryx:edgePosition="startTop" stroke-width="0pt" letter-spacing="-0.01px" fill="#000000" text-anchor="start" transform="rotate(359.6944254065414 240.77732952808117 39.6118542425169)" visibility="inherit" oryx:fontSize="12"/></g><g class="children" style="overflow:hidden"/><g class="edge"/></g><g class="controls"><g class="dockers"/><g class="magnets"/></g></g><g id="_2B6E139C-BEA0-42DC-B403-92288FD2968A" bpmn2nodeid="_C33836BB-A00B-4D2C-93E1-8B49D6B4A7CD"><g class="stencils"><g class="me"><g pointer-events="painted" bpmn2nodeid="_C969AF49-3C07-46C8-9BAA-33E1E7962944"><path id="_2B6E139C-BEA0-42DC-B403-92288FD2968A_1" d="M422.4295930411897 39.91999440606446L460.2149382088103 40.43938059393554 " stroke="#000000" fill="none" stroke-width="2" stroke-linecap="round" stroke-linejoin="round" marker-start="url(#_2B6E139C-BEA0-42DC-B403-92288FD2968Astart)" marker-end="url(#_2B6E139C-BEA0-42DC-B403-92288FD2968Aend)"/></g><text id="_2B6E139C-BEA0-42DC-B403-92288FD2968Atext_name" font-size="12" x="436.4295930411897" y="25.91999440606446" oryx:edgePosition="startTop" stroke-width="0pt" letter-spacing="-0.01px" fill="#000000" text-anchor="start" transform="rotate(0.7875212556709243 422.4295930411897 39.91999440606446)" visibility="inherit" oryx:fontSize="12"/></g><g class="children" style="overflow:hidden"/><g class="edge"/></g><g class="controls"><g class="dockers"/><g class="magnets"/></g></g></g><text id="_34196774-EE66-4649-9AAC-E78A14CB6CB2" style="stroke-width:1;fill:rgb(177,194,214);font-family:arial;font-weight:bold" font-size="12" onclick="ORYX.Plugins.CanvasTitle.openTextualAnalysis()" onmouseover="ORYX.Plugins.CanvasTitle.addToolTip('_34196774-EE66-4649-9AAC-E78A14CB6CB2')" transform="translate(10, 20)">Rewards Basic v.1 (com.sample.rewards-basic)</text></g></g></svg>